# xmcd
#
# Track frame offsets:
#	150
#	16033
#	36400
#	54604
#	69059
#	85865
#	103983
#	119836
#	135111
#	152951
#	174347
#	190345
#	214041
#	230088
#	246320
#	258674
#	285801
#	305259
#
# Disc length: 4332 seconds
#
# Revision: 0
# Processed by: cddbd v1.5.2PL0 Copyright (c) Steve Scherf et al.
# Submitted via: EasyCDDAExtractor 12.0.7.1
#
DISCID=f810ea12
DTITLE=Various Artist - album
DYEAR=1900
DGENRE=
TTITLE0=Adam Ant - Goody Two Shoes
TTITLE1=All Saints - Pure Shores
TTITLE2=Ann Lee - Voices
TTITLE3=Charly Lownoise and Mental Theo - Girls
TTITLE4=Chicane and Bryan Adams - Don't Give Up
TTITLE5=Donnell Jones - You Know What's Up
TTITLE6=Enrique Iglesias - Be With You
TTITLE7=Flying Steps - In Da Arena
TTITLE8=French Affair - Do What You Like
TTITLE9=Manu Chao - Bongo Bong
TTITLE10=Marque - One To Make Her Happy
TTITLE11=Martina McBride - Love's The Only House 
TTITLE12=Mink Deville - Spanish Stroll
TTITLE13=S Club 7 - Bring It All Back
TTITLE14=Solid Base - Once You Pop (U Can't Stop)
TTITLE15=U96 - Love Sees No Color
TTITLE16=X-Treme - Sleep
TTITLE17=Robin S - Show Me Love
EXTD=
EXTT0=
EXTT1=
EXTT2=
EXTT3=
EXTT4=
EXTT5=
EXTT6=
EXTT7=
EXTT8=
EXTT9=
EXTT10=
EXTT11=
EXTT12=
EXTT13=
EXTT14=
EXTT15=
EXTT16=
EXTT17=
PLAYORDER=
